# xmcd CD database file
#
# Track frame offsets:
#	150
#	21844
#	53170
#	70960
#	94558
#	113140
#	135298
#	163345
#	198700
#	212886
#
# Disc length: 3117 seconds
#
# Revision: 0
# Processed by: cddbd v1.4PL0 Copyright (c) Steve Scherf et al.
# Submitted via: CDex 1.50beta8
#
DISCID=8e0c2b0a
DTITLE=THE BIG FISH - TWO GOOD BANANAS AND OTHER TALES FROM THE DEEP
DYEAR=2003
DGENRE=Jazz
TTITLE0=Colombia
TTITLE1=You
TTITLE2=Brasilia
TTITLE3=Re-Union
TTITLE4=A Lover's Lullaby
TTITLE5=George 2
TTITLE6=George 3
TTITLE7=Sweet Adventurous Soul
TTITLE8=Dreamworld
TTITLE9=Two Good Bananas
EXTD=YEAR: 2003
EXTT0=
EXTT1=
EXTT2=
EXTT3=
EXTT4=
EXTT5=
EXTT6=
EXTT7=
EXTT8=
EXTT9=
PLAYORDER=
